<?xml version="1.0" standalone="no"?>
<!DOCTYPE svg PUBLIC "-//W3C//DTD SVG 20010904//EN"
 "http://www.w3.org/TR/2001/REC-SVG-20010904/DTD/svg10.dtd">
<svg version="1.0" xmlns="http://www.w3.org/2000/svg"
 width="700.000000pt" height="700.000000pt" viewBox="0 0 700.000000 700.000000"
 preserveAspectRatio="xMidYMid meet">
<metadata>
Created by potrace 1.14, written by Peter Selinger 2001-2017
</metadata>
<g transform="translate(0.000000,700.000000) scale(0.100000,-0.100000)"
fill="#000000" stroke="none">
<path d="M5166 6883 c-26 -7 -29 -8 -576 -371 -997 -660 -953 -630 -984 -679
-51 -79 -33 -204 37 -266 21 -19 127 -89 802 -535 593 -392 687 -453 712 -463
38 -14 121 -11 156 7 38 20 102 62 632 412 220 145 494 325 609 400 115 76
226 152 247 170 109 95 105 251 -8 337 -26 21 -179 123 -338 229 -160 105
-477 314 -705 465 -227 150 -428 279 -444 286 -33 12 -108 17 -140 8z m357
-665 c160 -106 394 -261 520 -344 l228 -151 -248 -163 c-136 -90 -369 -244
-517 -342 -217 -143 -274 -177 -290 -171 -12 5 -156 98 -321 207 -165 110
-392 260 -504 334 -111 74 -199 137 -195 141 5 4 167 112 359 239 193 127 422
278 510 336 88 58 161 106 163 106 2 0 134 -87 295 -192z"/>
<path d="M1718 6849 c-20 -5 -63 -26 -95 -48 -56 -37 -455 -301 -1118 -739
-170 -112 -320 -216 -332 -231 -59 -67 -67 -170 -21 -253 23 -41 209 -169 978
-673 74 -49 222 -146 328 -217 243 -161 243 -161 319 -161 73 0 15 -33 553
321 212 140 513 338 668 441 156 102 306 203 333 224 50 38 81 87 92 145 10
48 -11 128 -41 164 -24 29 -259 187 -1196 806 -171 112 -321 208 -335 214 -36
14 -89 16 -133 7z m387 -690 c171 -113 399 -263 507 -334 109 -72 198 -133
198 -137 0 -4 -9 -12 -20 -18 -16 -9 -220 -143 -920 -606 -41 -27 -80 -52 -86
-56 -7 -5 -160 91 -370 230 -198 131 -430 284 -516 341 -87 57 -158 107 -158
110 0 3 75 56 167 116 91 61 324 214 517 342 205 136 355 229 361 224 5 -5
150 -100 320 -212z"/>
<path d="M3707 5232 c-106 -44 -164 -192 -113 -291 29 -55 72 -89 337 -262
140 -92 462 -305 716 -473 255 -168 476 -312 491 -320 19 -10 53 -14 99 -13
61 2 76 7 124 39 30 19 160 105 289 190 129 85 336 221 460 303 124 82 329
217 456 300 244 161 264 177 296 240 26 50 20 149 -13 201 -52 84 -159 124
-250 92 -31 -10 -252 -154 -1068 -694 l-304 -202 -91 62 c-50 33 -95 63 -101
66 -5 3 -158 104 -340 224 -701 466 -801 530 -839 543 -45 16 -104 14 -149 -5z"/>
<path d="M230 5198 c-25 -14 -60 -44 -77 -67 -31 -40 -33 -47 -33 -125 0 -76
3 -87 29 -123 16 -22 53 -55 82 -75 30 -20 344 -228 699 -463 355 -235 668
-442 695 -460 84 -56 174 -67 244 -30 16 8 252 162 523 342 271 179 597 395
724 479 129 85 245 169 262 190 140 169 -47 416 -251 331 -18 -8 -172 -106
-342 -219 -171 -113 -465 -307 -655 -433 -190 -125 -349 -228 -355 -229 -5 -1
-286 181 -623 404 -804 532 -741 493 -816 498 -50 3 -69 -1 -106 -20z"/>
<path d="M6609 4551 c-40 -13 -48 -17 -517 -328 -591 -392 -852 -563 -861
-566 -7 -2 -103 61 -905 591 -220 145 -416 272 -437 283 -48 24 -121 24 -174
0 -118 -53 -162 -183 -102 -301 25 -50 -38 -6 946 -658 294 -195 551 -363 573
-374 47 -25 143 -26 189 -3 29 15 382 248 1149 756 404 268 405 269 405 390 0
67 -3 80 -29 118 -16 23 -48 53 -70 66 -44 26 -125 38 -167 26z"/>
<path d="M252 4517 c-47 -18 -97 -60 -115 -100 -21 -44 -23 -167 -3 -205 24
-46 61 -73 416 -308 190 -125 517 -341 727 -480 211 -139 392 -258 404 -265
29 -15 113 -19 157 -7 19 5 146 83 281 172 888 588 1229 817 1253 842 124 133
22 356 -163 355 -65 0 -92 -13 -279 -138 -91 -60 -286 -190 -435 -288 -148
-98 -362 -239 -475 -314 -113 -75 -211 -137 -217 -139 -7 -2 -13 -8 -13 -13 0
-25 55 -59 -905 576 -247 164 -464 304 -482 311 -39 17 -106 17 -151 1z"/>
<path d="M3458 3806 c-20 -7 -90 -48 -155 -92 -131 -87 -785 -519 -1133 -749
-124 -82 -231 -154 -237 -161 -7 -7 -24 -33 -37 -58 -42 -78 -21 -191 46 -253
20 -19 154 -108 793 -528 94 -61 280 -185 415 -274 135 -90 263 -172 285 -183
47 -25 125 -26 175 -4 19 8 200 124 402 258 202 134 527 348 722 476 194 129
367 248 384 265 45 46 61 93 58 163 -5 97 -25 121 -191 231 -794 528 -1326
878 -1365 898 -43 22 -115 27 -162 11z m352 -653 c118 -78 222 -147 230 -153
8 -5 128 -84 265 -175 138 -91 251 -169 252 -173 3 -8 -1020 -687 -1031 -685
-4 0 -136 86 -294 190 -158 104 -389 256 -514 339 -125 82 -228 151 -228 154
0 3 102 73 227 155 125 83 358 236 517 342 l290 192 36 -22 c19 -12 132 -86
250 -164z"/>
<path d="M2040 2178 c-59 -10 -119 -53 -148 -106 -43 -78 -32 -185 25 -247 26
-28 349 -243 1424 -951 175 -115 201 -112 459 58 169 111 496 327 1035 683
143 95 272 185 287 201 128 137 28 360 -161 358 -33 0 -70 -8 -89 -18 -18 -9
-214 -137 -435 -283 -221 -147 -516 -342 -656 -434 l-253 -167 -49 31 c-72 46
-512 337 -904 597 -187 124 -356 235 -375 247 -48 30 -106 41 -160 31z"/>
<path d="M2005 1478 c-124 -44 -179 -196 -111 -311 28 -50 -11 -22 686 -482
151 -100 402 -265 557 -368 155 -102 291 -191 304 -197 34 -18 139 -16 177 4
18 9 72 43 120 75 48 32 193 128 322 213 1185 781 1058 693 1092 757 47 89 27
199 -46 263 -34 29 -120 60 -151 54 -11 -3 -30 -5 -42 -5 -23 -1 -200 -116
-1276 -829 -62 -42 -114 -69 -120 -65 -7 4 -178 117 -382 252 -774 511 -951
627 -978 639 -33 14 -110 15 -152 0z"/>
</g>
</svg>
